<?xml version="1.0" ?><svg viewBox="0 0 64 64" xmlns="http://www.w3.org/2000/svg"><defs><style>.cls-1{fill:#fb7e2d;}.cls-2{fill:#fc9857;}.cls-3{fill:#94aa48;}.cls-4{fill:#c5e260;}.cls-5{fill:#ed1c24;}.cls-6{fill:#f14950;}.cls-7{fill:none;stroke:#000;stroke-linejoin:round;stroke-width:2px;}</style></defs><title/><g data-name="Layer 10" id="Layer_10"><circle class="cls-1" cx="15" cy="15" r="13"/><circle class="cls-2" cx="15" cy="15" r="9"/><path class="cls-3" d="M43,4h0a6.84,6.84,0,0,1,2,4.83V10H43.83A6.84,6.84,0,0,1,39,8h0a6.84,6.84,0,0,1-2-4.83V2h1.17A6.84,6.84,0,0,1,43,4Z"/><path class="cls-4" d="M42,8.83a6.8,6.8,0,0,0-5-6.57v.91a6.8,6.8,0,0,0,5,6.57Z"/><circle class="cls-1" cx="45" cy="31" r="17"/><ellipse class="cls-2" cx="43.5" cy="31" rx="15.5" ry="16.92"/><path class="cls-4" d="M54,36A26,26,0,0,1,2,36Z"/><path class="cls-5" d="M50,36A22,22,0,0,1,6,36Z"/><path class="cls-6" d="M26.5,57.94A22,22,0,0,0,47,36H6A22,22,0,0,0,26.5,57.94Z"/><path class="cls-7" d="M50,36A22,22,0,0,1,6,36"/><path class="cls-7" d="M54,36A26,26,0,0,1,2,36Z"/><circle class="cls-7" cx="13" cy="41" r="1"/><circle class="cls-7" cx="21" cy="51" r="1"/><circle class="cls-7" cx="28" cy="41" r="1"/><circle class="cls-7" cx="35" cy="51" r="1"/><circle class="cls-7" cx="43" cy="41" r="1"/><path class="cls-7" d="M28.75,36A17,17,0,1,1,52,46.5"/><path class="cls-7" d="M45,14V10.24A10.25,10.25,0,0,1,48,3h0"/><path class="cls-7" d="M43,4h0a6.84,6.84,0,0,1,2,4.83V10H43.83A6.84,6.84,0,0,1,39,8h0a6.84,6.84,0,0,1-2-4.83V2h1.17A6.84,6.84,0,0,1,43,4Z"/><path class="cls-7" d="M45,18A13,13,0,0,1,58,31"/><circle class="cls-7" cx="15" cy="15" r="13"/><circle class="cls-7" cx="15" cy="15" r="9"/><line class="cls-7" x1="15" x2="15" y1="6" y2="24"/><line class="cls-7" x1="6" x2="24" y1="15" y2="15"/><line class="cls-7" x1="9" x2="21" y1="21" y2="9"/><line class="cls-7" x1="9" x2="21" y1="9" y2="21"/></g></svg>